<?xml version="1.0" encoding="utf-8"?>
<!-- Generator: Adobe Illustrator 16.0.0, SVG Export Plug-In . SVG Version: 6.00 Build 0)  -->
<!DOCTYPE svg PUBLIC "-//W3C//DTD SVG 1.1//EN" "http://www.w3.org/Graphics/SVG/1.1/DTD/svg11.dtd">
<svg version="1.1"
	 id="Layer_1" xmlns:dc="http://purl.org/dc/elements/1.1/" xmlns:cc="http://creativecommons.org/ns#" xmlns:rdf="http://www.w3.org/1999/02/22-rdf-syntax-ns#"
	 xmlns="http://www.w3.org/2000/svg" xmlns:xlink="http://www.w3.org/1999/xlink" x="0px" y="0px" width="1000px"
	 height="985.687px" viewBox="-199.993 -197.173 1000 985.687" enable-background="new -199.993 -197.173 1000 985.687"
	 xml:space="preserve">
<g transform="translate(-0.0014,2.956876e-4)">
	<path fill="#642B91" d="M279.894-197.117l2.967,2.604c-61.184,8.047-113.068,33.588-155.834,76.98
		c-0.035,0.035-0.07,0.068-0.104,0.104l-1.979,1.979l-0.313,0.313l-0.26,0.313L-142.646,191.11
		c-50.377,57.75-57.346,131.435-57.346,170.368v5.781v15.052c0.016,12.471,0.035,29.111,0.051,45.729
		c0.017,16.62,0.041,33.208,0.052,45.678v15.104c0,3.643,0,7.374,0,5.729c0,43.271,17.324,84.584,48.49,116.043h0.052
		c29.304,29.502,85.101,63.648,180.984,63.648c1.172,0,0.688,0,1.979,0c1.292-0.003,3.2,0,5.625,0
		c4.851-0.003,11.815,0.004,20.261,0c16.891-0.01,39.713-0.042,63.49-0.052c43.729-0.022,85.844-0.049,104.844-0.052
		c8.029,20.781,17.892,38.864,30.156,54.216c30.931,38.604,76.442,60.159,126.72,60.159h141.98
		c50.276,0,95.776-21.543,126.667-60.159c16.25-20.322,28.34-45.225,37.396-75.365c65.019-27.393,99.075-79.984,108.438-126.563
		v-0.052v-0.052c0,0,2.656-12.956,2.656-25.573c0-9.203,0.158-103.334,0.158-103.334v-0.052c0-10.443-0.9-20.505-2.709-30.001v-0.05
		v-0.103l-0.416-1.979l-0.053-0.104v-0.156l-0.469-2.031v-0.052l-0.052-0.104c-5.021-21.451-25.207-80.562-92.5-115.157V13.141
		c0-55.587-21.886-108.292-61.512-147.917c-39.432-39.62-92.366-62.397-145.7-62.397h-181.1h-0.417h-35.157L279.894-197.117z"/>
	<path fill="#FFFFFF" d="M315.461-170.398h0.416h180.685c45.681,0,92.187,19.809,126.824,54.533
		c34.754,34.753,53.699,80.411,53.699,129.01v242.718v8.594l7.761,3.542c63.942,29.406,81.262,83.102,85.417,100.783
		c0,0.031,0.044,0.075,0.051,0.105l0.364,1.667l0.053,0.261l0.313,1.563l0.052,0.208c1.428,7.575,2.188,15.925,2.188,24.792
		c0,0-0.158,93.926-0.158,103.386c0,8.581-2.186,20.518-2.186,20.518c-7.954,39.382-37.343,86.026-97.814,109.324l-6.303,2.451
		l-1.771,6.458c-8.525,30.622-19.787,53.691-34.531,72.133c-26.003,32.503-63.068,50.159-105.834,50.159H382.705
		c-42.765,0-79.83-17.64-105.886-50.159h0.052c-11.875-14.863-21.517-32.764-29.27-55.209l-3.125-9.011h-9.479
		c-15.121,0-66.458,0.033-114.011,0.053c-23.777,0.016-46.599,0.045-63.49,0.052h-20.26c-2.425,0.003-4.333,0-5.625,0
		c-1.292,0-3.146,0-1.979,0c-89.652,0-137.249-30.83-162.032-55.781c-26.436-26.699-40.782-61.02-40.782-97.188v-5.781v-15.052
		c-0.016-12.471-0.035-29.111-0.051-45.731c-0.017-16.619-0.04-33.206-0.052-45.676v-15.104v-5.729
		c0-35.547,7.119-102.759,50.782-152.813L144.463-97.245l1.406-1.406h0.052l0.051-0.051c44.655-45.347,97.729-68.488,165.417-71.616
		v0.052l4.063-0.157L315.461-170.398z"/>
	<path fill="#642B91" d="M688.331,388.086c-2.719-11.505-14.679-42.309-66.635-52.228c-7.927-1.585-3.986-0.68-14.631-3.443
		c-10.69-2.808-14.18-11.55-14.18-24.733v-7.565V13.382c0.093-60.111-52.5-99.566-96.303-99.566H315.482
		c-46.612,2.129-80.631,17.169-109.531,46.522L-59.084,264.04c-21.788,24.95-29.987,63.102-29.987,97.482l0.092,132.681
		c-0.272,35.152,35.242,69.124,118.638,69.124l209.785-0.042h50.145c13.137,0,21.926,3.669,24.687,14.358
		c2.809,10.69,1.948,6.706,3.443,14.678c12.275,64.278,32.434,85.343,65.004,85.343h141.965c32.57,0,52.727-21.064,64.959-85.388
		c1.358-6.885,5.255-20.202,5.255-20.202c2.129-5.257,5.935-8.835,12.004-10.42c10.69-2.81,6.704-1.947,14.631-3.444
		c54.087-10.325,64.868-43.304,66.906-53.542c0.183-1.041,0.362-2.311,0.498-4.075c0,0,0.135-103.056,0.135-103.19
		c0-4.53-0.408-7.611-0.724-9.287"/>
	<path fill="#FFFFFF" d="M449.978,242.236c0,26.772-16.533,36.963-33.294,36.963l-154.513-0.091
		c-17.169,0-28.539,4.938-33.839,10.781l-25.231,28.853c-7.067,8.246-2.764,16.627,7.157,16.627
		c0.815,0,206.468-0.046,206.468-0.046c16.806,0,33.295,9.966,33.295,36.736v11.643c0,26.772-16.488,36.919-33.295,36.919
		c0,0-323.702,0.046-328.735,0.046c-14.949,0-28.72-7.972-28.72-26.364c0-11.368-0.045-13.678-0.045-26.452
		c0-19.524,8.97-33.34,24.144-49.558L289.403,82.475c0,0,22.741-28.356,57.938-29.807c4.937,0,69.396-0.226,69.396-0.226
		c16.805,0,33.294,10.011,33.294,36.782v11.823c0,26.772-16.487,36.963-33.294,36.963h-38.957c-16.443,0-27.497,4.803-32.57,10.374
		l-25.82,29.67c-6.795,7.926-2.673,15.944,6.795,15.944h90.506c16.759,0,33.294,9.966,33.294,36.783v11.46"/>
</g>
</svg>
